# xmcd
#
# Track frame offsets:
#	150
#	21790
#	43577
#	61323
#	82272
#	98478
#	115477
#	135915
#	150970
#	168603
#	191803
#	208822
#	230076
#	249283
#	265596
#	276564
#	293199
#	314669
#
# Disc length: 4452 seconds
#
# Revision: 13
# Processed by: cddbd v1.5.2PL0 Copyright (c) Steve Scherf et al.
# Submitted via: Jack! The Knife 20 Magnifico
#
DISCID=07116212
DTITLE=Ivan Graziani - The Best Of
DYEAR=1999
DGENRE=Pop
TTITLE0=Firenze (Canzone Triste)
TTITLE1=Guagliò Guagliò
TTITLE2=Johnny Non C'entra
TTITLE3=Lugano Addio
TTITLE4=Agnese
TTITLE5=Bambino Antico
TTITLE6=La Sposa Bambina
TTITLE7=La Bella Gina
TTITLE8=Maledette Malelingue
TTITLE9=Soltanto Fumo
TTITLE10=Psychedelico
TTITLE11=Radici Nel Vento
TTITLE12=Emily
TTITLE13=Il Chitarrista
TTITLE14=Pigro
TTITLE15=Le Mani Di Giulia
TTITLE16=Ora et Labora
TTITLE17=E Sei Così Bella
EXTD=Ivan Graziani
EXTT0=Ivan Graziani
EXTT1=Ivan Graziani
EXTT2=Ivan Graziani
EXTT3=Ivan Graziani
EXTT4=Ivan Graziani
EXTT5=Ivan Graziani
EXTT6=Ivan Graziani
EXTT7=Ivan Graziani
EXTT8=Ivan Graziani
EXTT9=Ivan Graziani
EXTT10=Ivan Graziani
EXTT11=Ivan Graziani
EXTT12=Ivan Graziani
EXTT13=Ivan Graziani
EXTT14=Ivan Graziani
EXTT15=Ivan Graziani
EXTT16=Ivan Graziani
EXTT17=Ivan Graziani
PLAYORDER=
